<svg xmlns="http://www.w3.org/2000/svg" xmlns:xlink="http://www.w3.org/1999/xlink" id="processonSvg1000" viewBox="169.0 128.0 729.0 420.0" width="729.0" height="420.0"><defs id="ProcessOnDefs1001"><marker id="ProcessOnMarker1097" markerUnits="userSpaceOnUse" orient="auto" markerWidth="16.23606797749979" markerHeight="10.550836550532098" viewBox="-1.0 -1.3763819204711736 16.23606797749979 10.550836550532098" refX="-1.0" refY="3.8990363547948754"><path id="ProcessOnPath1098" d="M12.0 3.8990363547948754L0.0 7.798072709589751V0.0Z" stroke="#323232" stroke-width="2.0" fill="#323232" transform="matrix(1.0,0.0,0.0,1.0,0.0,0.0)"/></marker><marker id="ProcessOnMarker1101" markerUnits="userSpaceOnUse" orient="auto" markerWidth="16.23606797749979" markerHeight="10.550836550532098" viewBox="-1.0 -1.3763819204711736 16.23606797749979 10.550836550532098" refX="-1.0" refY="3.8990363547948754"><path id="ProcessOnPath1102" d="M12.0 3.8990363547948754L0.0 7.798072709589751V0.0Z" stroke="#323232" stroke-width="2.0" fill="#323232" transform="matrix(1.0,0.0,0.0,1.0,0.0,0.0)"/></marker><marker id="ProcessOnMarker1105" markerUnits="userSpaceOnUse" orient="auto" markerWidth="16.23606797749979" markerHeight="10.550836550532098" viewBox="-1.0 -1.3763819204711736 16.23606797749979 10.550836550532098" refX="-1.0" refY="3.8990363547948754"><path id="ProcessOnPath1106" d="M12.0 3.8990363547948754L0.0 7.798072709589751V0.0Z" stroke="#323232" stroke-width="2.0" fill="#323232" transform="matrix(1.0,0.0,0.0,1.0,0.0,0.0)"/></marker><marker id="ProcessOnMarker1109" markerUnits="userSpaceOnUse" orient="auto" markerWidth="16.23606797749979" markerHeight="10.550836550532098" viewBox="-1.0 -1.3763819204711736 16.23606797749979 10.550836550532098" refX="-1.0" refY="3.8990363547948754"><path id="ProcessOnPath1110" d="M12.0 3.8990363547948754L0.0 7.798072709589751V0.0Z" stroke="#323232" stroke-width="2.0" fill="#323232" transform="matrix(1.0,0.0,0.0,1.0,0.0,0.0)"/></marker><marker id="ProcessOnMarker1113" markerUnits="userSpaceOnUse" orient="auto" markerWidth="16.23606797749979" markerHeight="10.550836550532098" viewBox="-1.0 -1.3763819204711736 16.23606797749979 10.550836550532098" refX="-1.0" refY="3.8990363547948754"><path id="ProcessOnPath1114" d="M12.0 3.8990363547948754L0.0 7.798072709589751V0.0Z" stroke="#323232" stroke-width="2.0" fill="#323232" transform="matrix(1.0,0.0,0.0,1.0,0.0,0.0)"/></marker><marker id="ProcessOnMarker1117" markerUnits="userSpaceOnUse" orient="auto" markerWidth="16.23606797749979" markerHeight="10.550836550532098" viewBox="-1.0 -1.3763819204711736 16.23606797749979 10.550836550532098" refX="-1.0" refY="3.8990363547948754"><path id="ProcessOnPath1118" d="M12.0 3.8990363547948754L0.0 7.798072709589751V0.0Z" stroke="#323232" stroke-width="2.0" fill="#323232" transform="matrix(1.0,0.0,0.0,1.0,0.0,0.0)"/></marker><marker id="ProcessOnMarker1121" markerUnits="userSpaceOnUse" orient="auto" markerWidth="16.23606797749979" markerHeight="10.550836550532098" viewBox="-1.0 -1.3763819204711736 16.23606797749979 10.550836550532098" refX="-1.0" refY="3.8990363547948754"><path id="ProcessOnPath1122" d="M12.0 3.8990363547948754L0.0 7.798072709589751V0.0Z" stroke="#323232" stroke-width="2.0" fill="#323232" transform="matrix(1.0,0.0,0.0,1.0,0.0,0.0)"/></marker><marker id="ProcessOnMarker1125" markerUnits="userSpaceOnUse" orient="auto" markerWidth="16.23606797749979" markerHeight="10.550836550532098" viewBox="-1.0 -1.3763819204711736 16.23606797749979 10.550836550532098" refX="-1.0" refY="3.8990363547948754"><path id="ProcessOnPath1126" d="M12.0 3.8990363547948754L0.0 7.798072709589751V0.0Z" stroke="#323232" stroke-width="2.0" fill="#323232" transform="matrix(1.0,0.0,0.0,1.0,0.0,0.0)"/></marker></defs><g id="ProcessOnG1002"><path id="ProcessOnPath1003" d="M169.0 128.0H898.0V548.0H169.0V128.0Z" fill="#ffffff"/><g id="ProcessOnG1004"><g id="ProcessOnG1005" transform="matrix(1.0,0.0,0.0,1.0,559.0,237.0)" opacity="1.0"><path id="ProcessOnPath1006" d="M0.0 0.0L134.0 0.0L134.0 200.0L0.0 200.0Z" stroke="#323232" stroke-width="2.0" stroke-dasharray="none" opacity="1.0" fill="#ffff33"/></g><g id="ProcessOnG1007" transform="matrix(1.0,0.0,0.0,1.0,716.5,237.0)" opacity="1.0"><path id="ProcessOnPath1008" d="M0.0 0.0L148.0 0.0L148.0 64.0L0.0 64.0Z" stroke="#323232" stroke-width="2.0" stroke-dasharray="none" opacity="1.0" fill="#00ff80"/></g><g id="ProcessOnG1009" transform="matrix(1.0,0.0,0.0,1.0,189.0,148.0)" opacity="1.0"><path id="ProcessOnPath1010" d="M0.0 0.0L689.0 0.0L689.0 380.0L0.0 380.0Z" stroke="#323232" stroke-width="2.0" stroke-dasharray="none" opacity="1.0" fill="none"/><path id="ProcessOnPath1011" d="M0.0 0.0L689.0 0.0L689.0 40.0L0.0 40.0Z" stroke="#323232" stroke-width="2.0" stroke-dasharray="none" opacity="1.0" fill="#e5ccff"/><g id="ProcessOnG1012" transform="matrix(1.0,0.0,0.0,1.0,10.0,10.0)"><text id="ProcessOnText1013" fill="#323232" font-weight="bold" font-style="italic" text-decoration="blink" font-family="Arial,宋体" text-anchor="middle" font-size="16" x="334.5" y="16.4">Fire Fighter Localization and Navigation</text></g></g><g id="ProcessOnG1014" transform="matrix(1.0,0.0,0.0,1.0,189.0,188.0)" opacity="1.0"><path id="ProcessOnPath1015" d="M0.0 0.0L178.0 0.0L178.0 340.0L0.0 340.0Z" stroke="#323232" stroke-width="2.0" stroke-dasharray="none" opacity="1.0" fill="none"/><path id="ProcessOnPath1016" d="M0.0 0.0L178.0 0.0L178.0 30.0L0.0 30.0Z" stroke="#323232" stroke-width="2.0" stroke-dasharray="none" opacity="1.0" fill="#cce5ff"/><g id="ProcessOnG1017" transform="matrix(1.0,0.0,0.0,1.0,10.0,6.875)"><text id="ProcessOnText1018" fill="#323232" font-weight="bold" font-style="italic" text-decoration="blink" font-family="Arial,宋体" text-anchor="middle" font-size="13" x="79.0" y="13.325">Graph Model</text></g></g><g id="ProcessOnG1019" transform="matrix(1.0,0.0,0.0,1.0,367.0,188.0)" opacity="1.0"><path id="ProcessOnPath1020" d="M0.0 0.0L175.0 0.0L175.0 340.0L0.0 340.0Z" stroke="#323232" stroke-width="2.0" stroke-dasharray="none" opacity="1.0" fill="none"/><path id="ProcessOnPath1021" d="M0.0 0.0L175.0 0.0L175.0 30.0L0.0 30.0Z" stroke="#323232" stroke-width="2.0" stroke-dasharray="none" opacity="1.0" fill="#ff99cc"/><g id="ProcessOnG1022" transform="matrix(1.0,0.0,0.0,1.0,10.0,6.875)"><text id="ProcessOnText1023" fill="#323232" font-weight="bold" font-style="italic" text-decoration="blink" font-family="Arial,宋体" text-anchor="middle" font-size="13" x="77.5" y="13.325">User Lock-on</text></g></g><g id="ProcessOnG1024" transform="matrix(1.0,0.0,0.0,1.0,542.0,188.0)" opacity="1.0"><path id="ProcessOnPath1025" d="M0.0 0.0L169.0 0.0L169.0 340.0L0.0 340.0Z" stroke="#323232" stroke-width="2.0" stroke-dasharray="none" opacity="1.0" fill="none"/><path id="ProcessOnPath1026" d="M0.0 0.0L169.0 0.0L169.0 30.0L0.0 30.0Z" stroke="#323232" stroke-width="2.0" stroke-dasharray="none" opacity="1.0" fill="#ccff99"/><g id="ProcessOnG1027" transform="matrix(1.0,0.0,0.0,1.0,10.0,6.875)"><text id="ProcessOnText1028" fill="#323232" font-weight="bold" font-style="italic" text-decoration="blink" font-family="Arial,宋体" text-anchor="middle" font-size="13" x="74.5" y="13.325">Indoor Navigation</text></g></g><g id="ProcessOnG1029" transform="matrix(1.0,0.0,0.0,1.0,711.0,188.0)" opacity="1.0"><path id="ProcessOnPath1030" d="M0.0 0.0L167.0 0.0L167.0 340.0L0.0 340.0Z" stroke="#323232" stroke-width="2.0" stroke-dasharray="none" opacity="1.0" fill="none"/><path id="ProcessOnPath1031" d="M0.0 0.0L167.0 0.0L167.0 30.0L0.0 30.0Z" stroke="#323232" stroke-width="2.0" stroke-dasharray="none" opacity="1.0" fill="#ffcc99"/><g id="ProcessOnG1032" transform="matrix(1.0,0.0,0.0,1.0,10.0,6.875)"><text id="ProcessOnText1033" fill="#323232" font-weight="bold" font-style="italic" text-decoration="blink" font-family="Arial,宋体" text-anchor="middle" font-size="13" x="73.5" y="13.325">Motion Engine</text></g></g><g id="ProcessOnG1034" transform="matrix(1.0,0.0,0.0,1.0,220.0,234.0)" opacity="1.0"><path id="ProcessOnPath1035" d="M0.0 0.0L100.0 0.0L100.0 70.0L0.0 70.0Z" stroke="#323232" stroke-width="2.0" stroke-dasharray="none" opacity="1.0" fill="#33ffff"/><g id="ProcessOnG1036" transform="matrix(1.0,0.0,0.0,1.0,10.0,18.75)"><text id="ProcessOnText1037" fill="#000000" font-weight="normal" font-style="normal" text-decoration="blink" font-family="微软雅黑" text-anchor="middle" font-size="13" x="40.0" y="13.325">Graph Builde</text><text id="ProcessOnText1038" fill="#000000" font-weight="normal" font-style="normal" text-decoration="blink" font-family="微软雅黑" text-anchor="middle" font-size="13" x="40.0" y="29.575">r</text></g></g><g id="ProcessOnG1039" transform="matrix(1.0,0.0,0.0,1.0,220.0,338.5)" opacity="1.0"><path id="ProcessOnPath1040" d="M0.0 0.0L100.0 0.0L100.0 70.0L0.0 70.0Z" stroke="#323232" stroke-width="2.0" stroke-dasharray="none" opacity="1.0" fill="#33ffff"/><g id="ProcessOnG1041" transform="matrix(1.0,0.0,0.0,1.0,10.0,18.75)"><text id="ProcessOnText1042" fill="#000000" font-weight="normal" font-style="normal" text-decoration="blink" font-family="微软雅黑" text-anchor="middle" font-size="13" x="40.0" y="13.325">Optimal Rou</text><text id="ProcessOnText1043" fill="#000000" font-weight="normal" font-style="normal" text-decoration="blink" font-family="微软雅黑" text-anchor="middle" font-size="13" x="40.0" y="29.575">te Search</text></g></g><g id="ProcessOnG1044" transform="matrix(1.0,0.0,0.0,1.0,398.0,234.0)" opacity="1.0"><path id="ProcessOnPath1045" d="M0.0 0.0L100.0 0.0L100.0 70.0L0.0 70.0Z" stroke="#323232" stroke-width="2.0" stroke-dasharray="none" opacity="1.0" fill="#b3ff66"/><g id="ProcessOnG1046" transform="matrix(1.0,0.0,0.0,1.0,10.0,18.75)"><text id="ProcessOnText1047" fill="#000000" font-weight="normal" font-style="normal" text-decoration="blink" font-family="微软雅黑" text-anchor="middle" font-size="13" x="40.0" y="13.325">Heading esti</text><text id="ProcessOnText1048" fill="#000000" font-weight="normal" font-style="normal" text-decoration="blink" font-family="微软雅黑" text-anchor="middle" font-size="13" x="40.0" y="29.575">mation</text></g></g><g id="ProcessOnG1049" transform="matrix(1.0,0.0,0.0,1.0,398.0,338.5)" opacity="1.0"><path id="ProcessOnPath1050" d="M0.0 0.0L100.0 0.0L100.0 70.0L0.0 70.0Z" stroke="#323232" stroke-width="2.0" stroke-dasharray="none" opacity="1.0" fill="#99ff33"/><g id="ProcessOnG1051" transform="matrix(1.0,0.0,0.0,1.0,10.0,18.75)"><text id="ProcessOnText1052" fill="#000000" font-weight="normal" font-style="normal" text-decoration="blink" font-family="微软雅黑" text-anchor="middle" font-size="13" x="40.0" y="13.325">Initial Positio</text><text id="ProcessOnText1053" fill="#000000" font-weight="normal" font-style="normal" text-decoration="blink" font-family="微软雅黑" text-anchor="middle" font-size="13" x="40.0" y="29.575">n</text></g></g><g id="ProcessOnG1054" transform="matrix(1.0,0.0,0.0,1.0,727.0,252.1875)" opacity="1.0"><path id="ProcessOnPath1055" d="M0.0 0.0L54.0 0.0L54.0 34.0L0.0 34.0Z" stroke="#323232" stroke-width="2.0" stroke-dasharray="none" opacity="1.0" fill="#3399ff"/><g id="ProcessOnG1056" transform="matrix(1.0,0.0,0.0,1.0,10.0,8.875)"><text id="ProcessOnText1057" fill="#000000" font-weight="normal" font-style="normal" text-decoration="blink" font-family="微软雅黑" text-anchor="middle" font-size="13" x="17.0" y="13.325">Accel</text></g></g><g id="ProcessOnG1058" transform="matrix(1.0,0.0,0.0,1.0,806.0,252.1875)" opacity="1.0"><path id="ProcessOnPath1059" d="M0.0 0.0L55.0 0.0L55.0 34.0L0.0 34.0Z" stroke="#323232" stroke-width="2.0" stroke-dasharray="none" opacity="1.0" fill="#3399ff"/><g id="ProcessOnG1060" transform="matrix(1.0,0.0,0.0,1.0,10.0,8.875)"><text id="ProcessOnText1061" fill="#000000" font-weight="normal" font-style="normal" text-decoration="blink" font-family="微软雅黑" text-anchor="middle" font-size="13" x="17.5" y="13.325">Gyro</text></g></g><g id="ProcessOnG1062" transform="matrix(1.0,0.0,0.0,1.0,576.0,244.0)" opacity="1.0"><path id="ProcessOnPath1063" d="M0.0 0.0L100.0 0.0L100.0 70.0L0.0 70.0Z" stroke="#323232" stroke-width="2.0" stroke-dasharray="none" opacity="1.0" fill="#ff9933"/><g id="ProcessOnG1064" transform="matrix(1.0,0.0,0.0,1.0,10.0,26.875)"><text id="ProcessOnText1065" fill="#000000" font-weight="normal" font-style="normal" text-decoration="blink" font-family="微软雅黑" text-anchor="middle" font-size="13" x="40.0" y="13.325">Position</text></g></g><g id="ProcessOnG1066" transform="matrix(1.0,0.0,0.0,1.0,576.0,331.5)" opacity="1.0"><path id="ProcessOnPath1067" d="M0.0 0.0L100.0 0.0L100.0 70.0L0.0 70.0Z" stroke="#323232" stroke-width="2.0" stroke-dasharray="none" opacity="1.0" fill="#ff9933"/><g id="ProcessOnG1068" transform="matrix(1.0,0.0,0.0,1.0,10.0,26.875)"><text id="ProcessOnText1069" fill="#000000" font-weight="normal" font-style="normal" text-decoration="blink" font-family="微软雅黑" text-anchor="middle" font-size="13" x="40.0" y="13.325">Attitude</text></g></g><g id="ProcessOnG1070" transform="matrix(1.0,0.0,0.0,1.0,220.0,439.5)" opacity="1.0"><path id="ProcessOnPath1071" d="M0.0 0.0L100.0 0.0L100.0 70.0L0.0 70.0Z" stroke="#323232" stroke-width="2.0" stroke-dasharray="none" opacity="1.0" fill="#33ffff"/><g id="ProcessOnG1072" transform="matrix(1.0,0.0,0.0,1.0,10.0,18.75)"><text id="ProcessOnText1073" fill="#000000" font-weight="normal" font-style="normal" text-decoration="blink" font-family="微软雅黑" text-anchor="middle" font-size="13" x="40.0" y="13.325">Graph Updat</text><text id="ProcessOnText1074" fill="#000000" font-weight="normal" font-style="normal" text-decoration="blink" font-family="微软雅黑" text-anchor="middle" font-size="13" x="40.0" y="29.575">e</text></g></g><g id="ProcessOnG1075" transform="matrix(1.0,0.0,0.0,1.0,714.5,341.5)" opacity="1.0"><path id="ProcessOnPath1076" d="M0.0 0.0L153.0 0.0L153.0 64.0L0.0 64.0Z" stroke="#323232" stroke-width="2.0" stroke-dasharray="none" opacity="1.0" fill="#00ff80"/></g><g id="ProcessOnG1077" transform="matrix(1.0,0.0,0.0,1.0,727.0,356.8125)" opacity="1.0"><path id="ProcessOnPath1078" d="M0.0 0.0L49.0 0.0L49.0 34.0L0.0 34.0Z" stroke="#323232" stroke-width="2.0" stroke-dasharray="none" opacity="1.0" fill="#3399ff"/><g id="ProcessOnG1079" transform="matrix(1.0,0.0,0.0,1.0,10.0,8.875)"><text id="ProcessOnText1080" fill="#000000" font-weight="normal" font-style="normal" text-decoration="blink" font-family="微软雅黑" text-anchor="middle" font-size="13" x="14.5" y="13.325">Step</text></g></g><g id="ProcessOnG1081" transform="matrix(1.0,0.0,0.0,1.0,791.0,356.5625)" opacity="1.0"><path id="ProcessOnPath1082" d="M0.0 0.0L74.0 0.0L74.0 34.25L0.0 34.25Z" stroke="#323232" stroke-width="2.0" stroke-dasharray="none" opacity="1.0" fill="#3399ff"/><g id="ProcessOnG1083" transform="matrix(1.0,0.0,0.0,1.0,10.0,9.0)"><text id="ProcessOnText1084" fill="#000000" font-weight="normal" font-style="normal" text-decoration="blink" font-family="微软雅黑" text-anchor="middle" font-size="13" x="27.0" y="13.325">Rotation</text></g></g><g id="ProcessOnG1085" transform="matrix(1.0,0.0,0.0,1.0,717.0,442.5)" opacity="1.0"><path id="ProcessOnPath1086" d="M0.0 0.0L148.0 0.0L148.0 64.0L0.0 64.0Z" stroke="#323232" stroke-width="2.0" stroke-dasharray="none" opacity="1.0" fill="#00ff80"/></g><g id="ProcessOnG1087" transform="matrix(1.0,0.0,0.0,1.0,727.0,460.8125)" opacity="1.0"><path id="ProcessOnPath1088" d="M0.0 0.0L54.0 0.0L54.0 34.0L0.0 34.0Z" stroke="#323232" stroke-width="2.0" stroke-dasharray="none" opacity="1.0" fill="#3399ff"/><g id="ProcessOnG1089" transform="matrix(1.0,0.0,0.0,1.0,10.0,8.875)"><text id="ProcessOnText1090" fill="#000000" font-weight="normal" font-style="normal" text-decoration="blink" font-family="微软雅黑" text-anchor="middle" font-size="13" x="17.0" y="13.325">Trace</text></g></g><g id="ProcessOnG1091" transform="matrix(1.0,0.0,0.0,1.0,795.0,460.8125)" opacity="1.0"><path id="ProcessOnPath1092" d="M0.0 0.0L58.0 0.0L58.0 34.0L0.0 34.0Z" stroke="#323232" stroke-width="2.0" stroke-dasharray="none" opacity="1.0" fill="#3399ff"/><g id="ProcessOnG1093" transform="matrix(1.0,0.0,0.0,1.0,10.0,8.875)"><text id="ProcessOnText1094" fill="#000000" font-weight="normal" font-style="normal" text-decoration="blink" font-family="微软雅黑" text-anchor="middle" font-size="13" x="19.0" y="13.325">Turn</text></g></g><g id="ProcessOnG1095"><path id="ProcessOnPath1096" d="M790.5 301.0L790.5 321.25L791.0 321.25L791.0 326.2639320225002" stroke="#323232" stroke-width="2.0" stroke-dasharray="none" fill="none" marker-end="url(#ProcessOnMarker1097)"/></g><g id="ProcessOnG1099"><path id="ProcessOnPath1100" d="M791.0 405.5L791.0 424.0L791.0 424.0L791.0 427.2639320225002" stroke="#323232" stroke-width="2.0" stroke-dasharray="none" fill="none" marker-end="url(#ProcessOnMarker1101)"/></g><g id="ProcessOnG1103"><path id="ProcessOnPath1104" d="M270.0 304.0L270.0 321.25L270.0 321.25L270.0 323.2639320225002" stroke="#323232" stroke-width="2.0" stroke-dasharray="none" fill="none" marker-end="url(#ProcessOnMarker1105)"/></g><g id="ProcessOnG1107"><path id="ProcessOnPath1108" d="M270.0 439.5L270.0 424.0L270.0 424.0L270.0 423.7360679774998" stroke="#323232" stroke-width="2.0" stroke-dasharray="none" fill="none" marker-end="url(#ProcessOnMarker1109)"/></g><g id="ProcessOnG1111"><path id="ProcessOnPath1112" d="M448.0 304.0L448.0 321.25L448.0 321.25L448.0 323.2639320225002" stroke="#323232" stroke-width="2.0" stroke-dasharray="none" fill="none" marker-end="url(#ProcessOnMarker1113)"/></g><g id="ProcessOnG1115"><path id="ProcessOnPath1116" d="M320.0 373.5L350.0 373.5L350.0 475.0L626.0 475.0L626.0 452.2360679774998" stroke="#323232" stroke-width="2.0" stroke-dasharray="none" fill="none" marker-end="url(#ProcessOnMarker1117)"/></g><g id="ProcessOnG1119"><path id="ProcessOnPath1120" d="M448.0 408.5L448.0 475.0L626.0 475.0L626.0 452.2360679774998" stroke="#323232" stroke-width="2.0" stroke-dasharray="none" fill="none" marker-end="url(#ProcessOnMarker1121)"/></g><g id="ProcessOnG1123"><path id="ProcessOnPath1124" d="M717.0 474.5L626.0 474.5L626.0 452.2360679774998" stroke="#323232" stroke-width="2.0" stroke-dasharray="none" fill="none" marker-end="url(#ProcessOnMarker1125)"/></g></g></g></svg>