<svg xmlns="http://www.w3.org/2000/svg" xmlns:xlink="http://www.w3.org/1999/xlink" id="processonSvg1000" viewBox="49.72954666055378 42.13326590401789 954.5800585291784 1394.7875104631696" width="954.5800585291784" height="1394.7875104631696"><defs id="ProcessOnDefs1001"><marker id="ProcessOnMarker1037" markerUnits="userSpaceOnUse" orient="auto" markerWidth="16.23606797749979" markerHeight="10.550836550532098" viewBox="-1.0 -1.3763819204711736 16.23606797749979 10.550836550532098" refX="-1.0" refY="3.8990363547948754"><path id="ProcessOnPath1038" d="M12.0 3.8990363547948754L0.0 7.798072709589751V0.0Z" stroke="#323232" stroke-width="2.0" fill="#323232" transform="matrix(1.0,0.0,0.0,1.0,0.0,0.0)"/></marker><marker id="ProcessOnMarker1041" markerUnits="userSpaceOnUse" orient="auto" markerWidth="16.23606797749979" markerHeight="10.550836550532098" viewBox="-1.0 -1.3763819204711736 16.23606797749979 10.550836550532098" refX="-1.0" refY="3.8990363547948754"><path id="ProcessOnPath1042" d="M12.0 3.8990363547948754L0.0 7.798072709589751V0.0Z" stroke="#323232" stroke-width="2.0" fill="#323232" transform="matrix(1.0,0.0,0.0,1.0,0.0,0.0)"/></marker><marker id="ProcessOnMarker1045" markerUnits="userSpaceOnUse" orient="auto" markerWidth="16.23606797749979" markerHeight="10.550836550532098" viewBox="-1.0 -1.3763819204711736 16.23606797749979 10.550836550532098" refX="-1.0" refY="3.8990363547948754"><path id="ProcessOnPath1046" d="M12.0 3.8990363547948754L0.0 7.798072709589751V0.0Z" stroke="#323232" stroke-width="2.0" fill="#323232" transform="matrix(1.0,0.0,0.0,1.0,0.0,0.0)"/></marker><marker id="ProcessOnMarker1049" markerUnits="userSpaceOnUse" orient="auto" markerWidth="16.23606797749979" markerHeight="10.550836550532098" viewBox="-1.0 -1.3763819204711736 16.23606797749979 10.550836550532098" refX="-1.0" refY="3.8990363547948754"><path id="ProcessOnPath1050" d="M12.0 3.8990363547948754L0.0 7.798072709589751V0.0Z" stroke="#323232" stroke-width="2.0" fill="#323232" transform="matrix(1.0,0.0,0.0,1.0,0.0,0.0)"/></marker><marker id="ProcessOnMarker1053" markerUnits="userSpaceOnUse" orient="auto" markerWidth="16.23606797749979" markerHeight="10.550836550532098" viewBox="-1.0 -1.3763819204711736 16.23606797749979 10.550836550532098" refX="-1.0" refY="3.8990363547948754"><path id="ProcessOnPath1054" d="M12.0 3.8990363547948754L0.0 7.798072709589751V0.0Z" stroke="#323232" stroke-width="2.0" fill="#323232" transform="matrix(1.0,0.0,0.0,1.0,0.0,0.0)"/></marker><marker id="ProcessOnMarker1057" markerUnits="userSpaceOnUse" orient="auto" markerWidth="16.23606797749979" markerHeight="10.550836550532098" viewBox="-1.0 -1.3763819204711736 16.23606797749979 10.550836550532098" refX="-1.0" refY="3.8990363547948754"><path id="ProcessOnPath1058" d="M12.0 3.8990363547948754L0.0 7.798072709589751V0.0Z" stroke="#323232" stroke-width="2.0" fill="#323232" transform="matrix(1.0,0.0,0.0,1.0,0.0,0.0)"/></marker><marker id="ProcessOnMarker1061" markerUnits="userSpaceOnUse" orient="auto" markerWidth="16.23606797749979" markerHeight="10.550836550532098" viewBox="-1.0 -1.3763819204711736 16.23606797749979 10.550836550532098" refX="-1.0" refY="3.8990363547948754"><path id="ProcessOnPath1062" d="M12.0 3.8990363547948754L0.0 7.798072709589751V0.0Z" stroke="#323232" stroke-width="2.0" fill="#323232" transform="matrix(1.0,0.0,0.0,1.0,0.0,0.0)"/></marker><marker id="ProcessOnMarker1065" markerUnits="userSpaceOnUse" orient="auto" markerWidth="16.23606797749979" markerHeight="10.550836550532098" viewBox="-1.0 -1.3763819204711736 16.23606797749979 10.550836550532098" refX="-1.0" refY="3.8990363547948754"><path id="ProcessOnPath1066" d="M12.0 3.8990363547948754L0.0 7.798072709589751V0.0Z" stroke="#323232" stroke-width="2.0" fill="#323232" transform="matrix(1.0,0.0,0.0,1.0,0.0,0.0)"/></marker><marker id="ProcessOnMarker1073" markerUnits="userSpaceOnUse" orient="auto" markerWidth="16.23606797749979" markerHeight="10.550836550532098" viewBox="-1.0 -1.3763819204711736 16.23606797749979 10.550836550532098" refX="-1.0" refY="3.8990363547948754"><path id="ProcessOnPath1074" d="M12.0 3.8990363547948754L0.0 7.798072709589751V0.0Z" stroke="#323232" stroke-width="2.0" fill="#323232" transform="matrix(1.0,0.0,0.0,1.0,0.0,0.0)"/></marker><marker id="ProcessOnMarker1081" markerUnits="userSpaceOnUse" orient="auto" markerWidth="16.23606797749979" markerHeight="10.550836550532098" viewBox="-1.0 -1.3763819204711736 16.23606797749979 10.550836550532098" refX="-1.0" refY="3.8990363547948754"><path id="ProcessOnPath1082" d="M12.0 3.8990363547948754L0.0 7.798072709589751V0.0Z" stroke="#323232" stroke-width="2.0" fill="#323232" transform="matrix(1.0,0.0,0.0,1.0,0.0,0.0)"/></marker></defs><g id="ProcessOnG1002"><path id="ProcessOnPath1003" d="M49.72954666055378 42.13326590401789H1004.3096051897321V1436.9207763671875H49.72954666055375V42.13326590401789Z" fill="#ffffff"/><g id="ProcessOnG1004"><g id="ProcessOnG1005" transform="matrix(1.0,0.0,0.0,1.0,99.72954666055378,1231.264710118531)" opacity="1.0"><path id="ProcessOnPath1006" d="M61.88535541621886 0.0L614.4415503202156 0.0C696.9553575418407 0.0 696.9553575418407 185.65606624865657 614.4415503202156 185.65606624865657L61.88535541621886 185.65606624865657C-20.628451805406286 185.65606624865657 -20.628451805406286 0.0 61.88535541621886 0.0Z" stroke="#323232" stroke-width="2.0" stroke-dasharray="none" opacity="1.0" fill="#ffffff"/></g><g id="ProcessOnG1007" transform="matrix(1.0,0.0,0.0,1.0,99.72954666055378,965.3249395461311)" opacity="1.0"><path id="ProcessOnPath1008" d="M41.814429335283016 0.0L634.5124764011515 0.0C690.2650488481954 0.0 690.2650488481954 125.44328800584906 634.5124764011515 125.44328800584906L41.814429335283016 125.44328800584906C-13.938143111761006 125.44328800584906 -13.938143111761006 0.0 41.814429335283016 0.0Z" stroke="#323232" stroke-width="2.0" stroke-dasharray="none" opacity="1.0" fill="#ffffff"/><g id="ProcessOnG1009" transform="matrix(1.0,0.0,0.0,1.0,10.0,54.59664400292453)"><text id="ProcessOnText1010" fill="#000000" font-weight="bold" font-style="normal" text-decoration="blink" font-family="Georgia" text-anchor="middle" font-size="13" x="328.16345286821723" y="13.325">Stance &amp; Still phase detection</text></g></g><g id="ProcessOnG1011" transform="matrix(1.0,0.0,0.0,1.0,156.56374041991808,1254.8180916575395)" opacity="1.0"><path id="ProcessOnPath1012" d="M0.0 0.0L234.72022015047702 0.0L234.72022015047702 138.5493031706396L0.0 138.5493031706396Z" stroke="#323232" stroke-width="2.0" stroke-dasharray="none" opacity="1.0" fill="#ffffff"/><g id="ProcessOnG1013" transform="matrix(1.0,0.0,0.0,1.0,10.0,61.1496515853198)"><text id="ProcessOnText1014" fill="#000000" font-weight="bold" font-style="normal" text-decoration="blink" font-family="Georgia" text-anchor="middle" font-size="13" x="107.36011007523851" y="13.325">Accelerometer</text></g></g><g id="ProcessOnG1015" transform="matrix(1.0,0.0,0.0,1.0,501.83007859813995,1254.8180916575395)" opacity="1.0"><path id="ProcessOnPath1016" d="M0.0 0.0L215.96993628558408 0.0L215.96993628558408 138.54930317063926L0.0 138.54930317063926Z" stroke="#323232" stroke-width="2.0" stroke-dasharray="none" opacity="1.0" fill="#ffffff"/><g id="ProcessOnG1017" transform="matrix(1.0,0.0,0.0,1.0,10.0,61.14965158531963)"><text id="ProcessOnText1018" fill="#000000" font-weight="bold" font-style="normal" text-decoration="blink" font-family="Georgia" text-anchor="middle" font-size="13" x="97.98496814279204" y="13.325">Gyroscope</text></g></g><g id="ProcessOnG1019" transform="matrix(1.0,0.0,0.0,1.0,99.72954666055378,280.4045870341953)" opacity="1.0"><path id="ProcessOnPath1020" d="M43.48700650869434 0.0L632.8398992277401 0.0C690.8225745726659 0.0 690.8225745726659 130.46101952608302 632.8398992277401 130.46101952608302L43.48700650869434 130.46101952608302C-14.495668836231447 130.46101952608302 -14.495668836231447 0.0 43.48700650869434 0.0Z" stroke="#323232" stroke-width="2.0" stroke-dasharray="none" opacity="1.0" fill="#ffffff"/><g id="ProcessOnG1021" transform="matrix(1.0,0.0,0.0,1.0,10.0,57.10550976304151)"><text id="ProcessOnText1022" fill="#000000" font-weight="bold" font-style="normal" text-decoration="blink" font-family="Georgia" text-anchor="middle" font-size="13" x="328.16345286821723" y="13.325">Position and Attitude estimation</text></g></g><g id="ProcessOnG1023" transform="matrix(1.0,0.0,0.0,1.0,785.9732691966428,706.9117662540822)" opacity="1.0"><path id="ProcessOnPath1024" d="M0.0 0.0L198.3363359930893 0.0L198.3363359930893 115.40782496538112L0.0 115.40782496538112Z" stroke="#323232" stroke-width="2.0" stroke-dasharray="none" opacity="1.0" fill="#ffffff"/><g id="ProcessOnG1025" transform="matrix(1.0,0.0,0.0,1.0,10.0,49.57891248269056)"><text id="ProcessOnText1026" fill="#000000" font-weight="bold" font-style="normal" text-decoration="blink" font-family="Georgia" text-anchor="middle" font-size="13" x="89.16816799654465" y="13.325">ZUPT</text></g></g><g id="ProcessOnG1027" transform="matrix(1.0,0.0,0.0,1.0,99.72954666055378,533.8000288060105)" opacity="1.0"><path id="ProcessOnPath1028" d="M41.814429335283016 0.0L634.5124764011515 0.0C690.2650488481954 0.0 690.2650488481954 125.44328800584906 634.5124764011515 125.44328800584906L41.814429335283016 125.44328800584906C-13.938143111761006 125.44328800584906 -13.938143111761006 0.0 41.814429335283016 0.0Z" stroke="#323232" stroke-width="2.0" stroke-dasharray="none" opacity="1.0" fill="#ffffff"/><g id="ProcessOnG1029" transform="matrix(1.0,0.0,0.0,1.0,10.0,54.59664400292453)"><text id="ProcessOnText1030" fill="#000000" font-weight="bold" font-style="normal" text-decoration="blink" font-family="Georgia" text-anchor="middle" font-size="13" x="328.16345286821723" y="13.325">Fusion data from different source</text></g></g><g id="ProcessOnG1031" transform="matrix(1.0,0.0,0.0,1.0,99.72954666055378,772.1422760171233)" opacity="1.0"><path id="ProcessOnPath1032" d="M0.0 0.0L267.75405359067054 0.0L267.75405359067054 115.40782496538112L0.0 115.40782496538112Z" stroke="#323232" stroke-width="2.0" stroke-dasharray="none" opacity="1.0" fill="#ffffff"/><g id="ProcessOnG1033" transform="matrix(1.0,0.0,0.0,1.0,10.0,49.57891248269056)"><text id="ProcessOnText1034" fill="#000000" font-weight="bold" font-style="normal" text-decoration="blink" font-family="Georgia" text-anchor="middle" font-size="13" x="123.87702679533527" y="13.325">Wireless sensor indicator</text></g></g><g id="ProcessOnG1035"><path id="ProcessOnPath1036" d="M99.72954666055378 1324.0927432428593L69.72954666055378 1324.0927432428593L69.72954666055378 345.63509679723677L84.493478683054 345.63509679723677" stroke="#323232" stroke-width="2.0" stroke-dasharray="none" fill="none" marker-end="url(#ProcessOnMarker1037)"/></g><g id="ProcessOnG1039"><path id="ProcessOnPath1040" d="M785.9732691966428 764.6156787367728L677.7867310506688 764.6156787367728L677.7867310506688 674.4793847893593" stroke="#323232" stroke-width="2.0" stroke-dasharray="none" fill="none" marker-end="url(#ProcessOnMarker1041)"/></g><g id="ProcessOnG1043"><path id="ProcessOnPath1044" d="M437.89299952877093 533.8000288060105L437.89299952877093 472.33281768314436L437.89299952877093 472.33281768314436L437.89299952877093 426.101674537778" stroke="#323232" stroke-width="2.0" stroke-dasharray="none" fill="none" marker-end="url(#ProcessOnMarker1045)"/></g><g id="ProcessOnG1047"><path id="ProcessOnPath1048" d="M99.72954666055378 829.8461884998139L69.72954666055378 829.8461884998139L69.72954666055378 596.5216728089349L84.493478683054 596.5216728089349" stroke="#323232" stroke-width="2.0" stroke-dasharray="none" fill="none" marker-end="url(#ProcessOnMarker1049)"/></g><g id="ProcessOnG1051"><path id="ProcessOnPath1052" d="M437.89299952877093 1231.264710118531L437.89299952877093 1161.0164688352556L437.89299952877093 1161.0164688352556L437.89299952877093 1106.00429552948" stroke="#323232" stroke-width="2.0" stroke-dasharray="none" fill="none" marker-end="url(#ProcessOnMarker1053)"/></g><g id="ProcessOnG1055"><path id="ProcessOnPath1056" d="M776.0564523969883 345.63509679723677L885.1414371931875 345.63509679723677L885.1414371931875 691.6756982765824" stroke="#323232" stroke-width="2.0" stroke-dasharray="none" fill="none" marker-end="url(#ProcessOnMarker1057)"/></g><g id="ProcessOnG1059"><path id="ProcessOnPath1060" d="M883.1580738332564 596.5216728089349L829.6072631151224 596.5216728089349L829.6072631151224 596.5216728089349L791.2925203744882 596.5216728089349" stroke="#323232" stroke-width="2.0" stroke-dasharray="none" fill="none" marker-end="url(#ProcessOnMarker1061)"/></g><g id="ProcessOnG1063"><path id="ProcessOnPath1064" d="M437.89299952877093 280.4045870341953L437.89299952877093 232.73613759197264L437.89299952877104 232.73613759197264L437.89299952877104 200.30375612724978" stroke="#323232" stroke-width="2.0" stroke-dasharray="none" fill="none" marker-end="url(#ProcessOnMarker1065)"/></g><g id="ProcessOnG1067" transform="matrix(1.0,0.0,0.0,1.0,277.73640821435146,62.13326590401789)" opacity="1.0"><path id="ProcessOnPath1068" d="M0.0 0.0L320.3131826288392 0.0L320.3131826288392 122.93442224573208L0.0 122.93442224573208Z" stroke="#323232" stroke-width="2.0" stroke-dasharray="none" opacity="1.0" fill="#ffffff"/><g id="ProcessOnG1069" transform="matrix(1.0,0.0,0.0,1.0,10.0,53.34221112286604)"><text id="ProcessOnText1070" fill="#000000" font-weight="bold" font-style="normal" text-decoration="blink" font-family="Georgia" text-anchor="middle" font-size="13" x="150.1565913144196" y="13.325">Localization Trace</text></g></g><g id="ProcessOnG1071"><path id="ProcessOnPath1072" d="M776.0564523969883 1028.0465835490556L885.1414371931875 1028.0465835490556L885.1414371931875 837.555659196963" stroke="#323232" stroke-width="2.0" stroke-dasharray="none" fill="none" marker-end="url(#ProcessOnMarker1073)"/></g><g id="ProcessOnG1075" transform="matrix(1.0,0.0,0.0,1.0,403.1841407299804,772.1422760171233)" opacity="1.0"><path id="ProcessOnPath1076" d="M0.0 0.0L226.10342303212175 0.0L226.10342303212175 115.40782496538112L0.0 115.40782496538112Z" stroke="#323232" stroke-width="2.0" stroke-dasharray="none" opacity="1.0" fill="#ffffff"/><g id="ProcessOnG1077" transform="matrix(1.0,0.0,0.0,1.0,10.0,49.57891248269056)"><text id="ProcessOnText1078" fill="#000000" font-weight="bold" font-style="normal" text-decoration="blink" font-family="Georgia" text-anchor="middle" font-size="13" x="103.05171151606088" y="13.325">Deviation detection</text></g></g><g id="ProcessOnG1079"><path id="ProcessOnPath1080" d="M516.2358522460413 772.1422760171233L516.2358522460413 715.6927964144913L516.2358522460413 715.6927964144913L516.2358522460413 674.4793847893593" stroke="#323232" stroke-width="2.0" stroke-dasharray="none" fill="none" marker-end="url(#ProcessOnMarker1081)"/></g></g></g></svg>